<svg xmlns="http://www.w3.org/2000/svg" width="188.399" height="171.949"><path d="M75.75 5.05c2.18 21.407 1.467 57.472-19.445 58.328C35.65 64.223 34.595 46.355 39.14.222L0 8.052C10.303 61.925 6.326 115.8 0 169.675h7c59.317-3.168 121.912-5.128 171.55 2.273l9.85-46.96c-48.732 22.278-107.376 13.424-157.34 12.878-2.308-17.035-4.278-34.06-6.314-58.593 103.287 23.75 152.53 14.008 153.035-29.787V5.05L142.176 0c4.91 16.152 16.58 59.55-10.998 61.774C103.6 63.998 107.504 36.28 110.094 5.05H75.75z"/></svg>